<svg xmlns="http://www.w3.org/2000/svg"><style>
  text { font-family: sans-serif; font-size: 16px} 
  line { stroke: black; }
  rect { fill: none; stroke: black; }
  </style><rect x="4pc" y="0%" width="92pc" height="80%"></rect><text x="4pc" y="80%" text-anchor="middle" dominant-baseline="middle">0</text><text x="7.833333333333334pc" y="80%" text-anchor="middle" dominant-baseline="middle"></text><text x="11.666666666666666pc" y="80%" text-anchor="middle" dominant-baseline="middle"></text><text x="15.5pc" y="80%" text-anchor="middle" dominant-baseline="middle">3</text><text x="19.333333333333332pc" y="80%" text-anchor="middle" dominant-baseline="middle"></text><text x="23.166666666666668pc" y="80%" text-anchor="middle" dominant-baseline="middle"></text><text x="27pc" y="80%" text-anchor="middle" dominant-baseline="middle">6</text><text x="30.833333333333332pc" y="80%" text-anchor="middle" dominant-baseline="middle"></text><text x="34.666666666666664pc" y="80%" text-anchor="middle" dominant-baseline="middle"></text><text x="38.5pc" y="80%" text-anchor="middle" dominant-baseline="middle">9</text><text x="42.333333333333336pc" y="80%" text-anchor="middle" dominant-baseline="middle"></text><text x="46.166666666666664pc" y="80%" text-anchor="middle" dominant-baseline="middle"></text><text x="50pc" y="80%" text-anchor="middle" dominant-baseline="middle">12</text><text x="53.833333333333336pc" y="80%" text-anchor="middle" dominant-baseline="middle"></text><text x="57.666666666666664pc" y="80%" text-anchor="middle" dominant-baseline="middle"></text><text x="61.5pc" y="80%" text-anchor="middle" dominant-baseline="middle">15</text><text x="65.33333333333333pc" y="80%" text-anchor="middle" dominant-baseline="middle"></text><text x="69.16666666666667pc" y="80%" text-anchor="middle" dominant-baseline="middle"></text><text x="73pc" y="80%" text-anchor="middle" dominant-baseline="middle">18</text><text x="76.83333333333333pc" y="80%" text-anchor="middle" dominant-baseline="middle"></text><text x="80.66666666666667pc" y="80%" text-anchor="middle" dominant-baseline="middle"></text><text x="84.5pc" y="80%" text-anchor="middle" dominant-baseline="middle">21</text><text x="88.33333333333333pc" y="80%" text-anchor="middle" dominant-baseline="middle"></text><text x="92.16666666666667pc" y="80%" text-anchor="middle" dominant-baseline="middle"></text><text x="96pc" y="80%" text-anchor="middle" dominant-baseline="middle">24</text><line x1="4pc" x2="4pc" y1="0%" y2="40%"></line><line x1="7.833333333333334pc" x2="7.833333333333334pc" y1="0%" y2="10%"></line><line x1="11.666666666666666pc" x2="11.666666666666666pc" y1="0%" y2="10%"></line><line x1="15.5pc" x2="15.5pc" y1="0%" y2="40%"></line><line x1="19.333333333333332pc" x2="19.333333333333332pc" y1="0%" y2="10%"></line><line x1="23.166666666666668pc" x2="23.166666666666668pc" y1="0%" y2="10%"></line><line x1="27pc" x2="27pc" y1="0%" y2="40%"></line><line x1="30.833333333333332pc" x2="30.833333333333332pc" y1="0%" y2="10%"></line><line x1="34.666666666666664pc" x2="34.666666666666664pc" y1="0%" y2="10%"></line><line x1="38.5pc" x2="38.5pc" y1="0%" y2="40%"></line><line x1="42.333333333333336pc" x2="42.333333333333336pc" y1="0%" y2="10%"></line><line x1="46.166666666666664pc" x2="46.166666666666664pc" y1="0%" y2="10%"></line><line x1="50pc" x2="50pc" y1="0%" y2="40%"></line><line x1="53.833333333333336pc" x2="53.833333333333336pc" y1="0%" y2="10%"></line><line x1="57.666666666666664pc" x2="57.666666666666664pc" y1="0%" y2="10%"></line><line x1="61.5pc" x2="61.5pc" y1="0%" y2="40%"></line><line x1="65.33333333333333pc" x2="65.33333333333333pc" y1="0%" y2="10%"></line><line x1="69.16666666666667pc" x2="69.16666666666667pc" y1="0%" y2="10%"></line><line x1="73pc" x2="73pc" y1="0%" y2="40%"></line><line x1="76.83333333333333pc" x2="76.83333333333333pc" y1="0%" y2="10%"></line><line x1="80.66666666666667pc" x2="80.66666666666667pc" y1="0%" y2="10%"></line><line x1="84.5pc" x2="84.5pc" y1="0%" y2="40%"></line><line x1="88.33333333333333pc" x2="88.33333333333333pc" y1="0%" y2="10%"></line><line x1="92.16666666666667pc" x2="92.16666666666667pc" y1="0%" y2="10%"></line><line x1="96pc" x2="96pc" y1="0%" y2="40%"></line><circle r="2%" cx="64.37056717592593pc" cy="40%" fill="red"></circle></svg>