<svg xmlns="http://www.w3.org/2000/svg"><style>
  .red-stroke { stroke: red; stroke-width: 0.5%; }
  text { font-family: sans-serif; font-size: 100%} 
  line { stroke: black; }
  rect { fill: none; stroke: black; }
  </style><rect x="4%" y="0%" width="92%" height="90%"></rect><text x="4%" y="95%" text-anchor="middle" dominant-baseline="middle">0</text><text x="7.833333333333334%" y="95%" text-anchor="middle" dominant-baseline="middle"></text><text x="11.666666666666666%" y="95%" text-anchor="middle" dominant-baseline="middle"></text><text x="15.5%" y="95%" text-anchor="middle" dominant-baseline="middle">3</text><text x="19.333333333333332%" y="95%" text-anchor="middle" dominant-baseline="middle"></text><text x="23.166666666666668%" y="95%" text-anchor="middle" dominant-baseline="middle"></text><text x="27%" y="95%" text-anchor="middle" dominant-baseline="middle">6</text><text x="30.833333333333332%" y="95%" text-anchor="middle" dominant-baseline="middle"></text><text x="34.666666666666664%" y="95%" text-anchor="middle" dominant-baseline="middle"></text><text x="38.5%" y="95%" text-anchor="middle" dominant-baseline="middle">9</text><text x="42.333333333333336%" y="95%" text-anchor="middle" dominant-baseline="middle"></text><text x="46.166666666666664%" y="95%" text-anchor="middle" dominant-baseline="middle"></text><text x="50%" y="95%" text-anchor="middle" dominant-baseline="middle">12</text><text x="53.833333333333336%" y="95%" text-anchor="middle" dominant-baseline="middle"></text><text x="57.666666666666664%" y="95%" text-anchor="middle" dominant-baseline="middle"></text><text x="61.5%" y="95%" text-anchor="middle" dominant-baseline="middle">15</text><text x="65.33333333333333%" y="95%" text-anchor="middle" dominant-baseline="middle"></text><text x="69.16666666666667%" y="95%" text-anchor="middle" dominant-baseline="middle"></text><text x="73%" y="95%" text-anchor="middle" dominant-baseline="middle">18</text><text x="76.83333333333333%" y="95%" text-anchor="middle" dominant-baseline="middle"></text><text x="80.66666666666667%" y="95%" text-anchor="middle" dominant-baseline="middle"></text><text x="84.5%" y="95%" text-anchor="middle" dominant-baseline="middle">21</text><text x="88.33333333333333%" y="95%" text-anchor="middle" dominant-baseline="middle"></text><text x="92.16666666666667%" y="95%" text-anchor="middle" dominant-baseline="middle"></text><text x="96%" y="95%" text-anchor="middle" dominant-baseline="middle">24</text><line x1="4%" x2="4%" y1="0%" y2="90%"></line><line x1="7.833333333333334%" x2="7.833333333333334%" y1="67.5%" y2="90%"></line><line x1="11.666666666666666%" x2="11.666666666666666%" y1="67.5%" y2="90%"></line><line x1="15.5%" x2="15.5%" y1="45%" y2="90%"></line><line x1="19.333333333333332%" x2="19.333333333333332%" y1="67.5%" y2="90%"></line><line x1="23.166666666666668%" x2="23.166666666666668%" y1="67.5%" y2="90%"></line><line x1="27%" x2="27%" y1="0%" y2="90%"></line><line x1="30.833333333333332%" x2="30.833333333333332%" y1="67.5%" y2="90%"></line><line x1="34.666666666666664%" x2="34.666666666666664%" y1="67.5%" y2="90%"></line><line x1="38.5%" x2="38.5%" y1="45%" y2="90%"></line><line x1="42.333333333333336%" x2="42.333333333333336%" y1="67.5%" y2="90%"></line><line x1="46.166666666666664%" x2="46.166666666666664%" y1="67.5%" y2="90%"></line><line x1="50%" x2="50%" y1="0%" y2="90%"></line><line x1="53.833333333333336%" x2="53.833333333333336%" y1="67.5%" y2="90%"></line><line x1="57.666666666666664%" x2="57.666666666666664%" y1="67.5%" y2="90%"></line><line x1="61.5%" x2="61.5%" y1="45%" y2="90%"></line><line x1="65.33333333333333%" x2="65.33333333333333%" y1="67.5%" y2="90%"></line><line x1="69.16666666666667%" x2="69.16666666666667%" y1="67.5%" y2="90%"></line><line x1="73%" x2="73%" y1="0%" y2="90%"></line><line x1="76.83333333333333%" x2="76.83333333333333%" y1="67.5%" y2="90%"></line><line x1="80.66666666666667%" x2="80.66666666666667%" y1="67.5%" y2="90%"></line><line x1="84.5%" x2="84.5%" y1="45%" y2="90%"></line><line x1="88.33333333333333%" x2="88.33333333333333%" y1="67.5%" y2="90%"></line><line x1="92.16666666666667%" x2="92.16666666666667%" y1="67.5%" y2="90%"></line><line x1="96%" x2="96%" y1="0%" y2="90%"></line><circle r="2%" cx="47.125%" cy="30%" fill="red"></circle><circle r="2%" cx="59.26430736111111%" cy="30%" fill="red"></circle><line x1="47.125%" x2="59.26430736111111%" y1="30%" y2="30%" class="red-stroke"></line></svg>