<svg xmlns="http://www.w3.org/2000/svg">
  <circle cx="0" cy="50" r="20" fill="red"/>
  <circle cx="25" cy="50" r="20" fill="yellow"/>
  <circle cx="50" cy="50" r="20" fill="black"/>
  <circle cx="75" cy="50" r="20" fill="red"/>
  <circle cx="100" cy="50" r="20" fill="yellow"/>
  <circle cx="125" cy="50" r="20" fill="black"/>
  <circle cx="150" cy="50" r="20" fill="red"/>
  <circle cx="175" cy="50" r="20" fill="yellow"/>
  <circle cx="200" cy="50" r="20" fill="black"/>
  <circle cx="225" cy="50" r="20" fill="red"/>
  <circle cx="250" cy="50" r="20" fill="yellow"/>
  <circle cx="275" cy="50" r="20" fill="black"/>
  <circle cx="300" cy="50" r="20" fill="red"/>
  <circle cx="325" cy="50" r="20" fill="yellow"/>
  <circle cx="350" cy="50" r="20" fill="black"/>
  <circle cx="375" cy="50" r="20" fill="red"/>
  <circle cx="400" cy="50" r="20" fill="yellow"/>
  <circle cx="425" cy="50" r="20" fill="black"/>

  <circle cy="0" cx="50" r="20" fill="red"/>
  <circle cy="50" cx="50" r="20" fill="black"/>
  <circle cy="25" cx="50" r="20" fill="yellow"/>
  <circle cy="75" cx="50" r="20" fill="red"/>
  <circle cy="100" cx="50" r="20" fill="yellow"/>
  <circle cy="125" cx="50" r="20" fill="black"/>
  <circle cy="150" cx="50" r="20" fill="red"/>
  <circle cy="175" cx="50" r="20" fill="yellow"/>
  <circle cy="200" cx="50" r="20" fill="black"/>
  <circle cy="225" cx="50" r="20" fill="red"/>
  <circle cy="250" cx="50" r="20" fill="yellow"/>
  <circle cy="275" cx="50" r="20" fill="black"/>
  <circle cy="300" cx="50" r="20" fill="red"/>
  <circle cy="325" cx="50" r="20" fill="yellow"/>
  <circle cy="350" cx="50" r="20" fill="black"/>
  <circle cy="375" cx="50" r="20" fill="red"/>
  <circle cy="400" cx="50" r="20" fill="yellow"/>
  <circle cy="425" cx="50" r="20" fill="black"/>  
</svg>